<svg width="14" height="8" viewBox="0 0 14 8" fill="none" xmlns="http://www.w3.org/2000/svg">
<path d="M1 3.5C0.723858 3.5 0.5 3.72386 0.5 4C0.5 4.27614 0.723858 4.5 1 4.5V3.5ZM13.8536 4.35355C14.0488 4.15829 14.0488 3.84171 13.8536 3.64645L10.6716 0.464466C10.4763 0.269204 10.1597 0.269204 9.96447 0.464466C9.7692 0.659728 9.7692 0.976311 9.96447 1.17157L12.7929 4L9.96447 6.82843C9.7692 7.02369 9.7692 7.34027 9.96447 7.53553C10.1597 7.7308 10.4763 7.7308 10.6716 7.53553L13.8536 4.35355ZM1 4.5H13.5V3.5H1V4.5Z" fill="white"/>
</svg>
