<svg width="211" height="43" viewBox="0 0 211 43" fill="none" xmlns="http://www.w3.org/2000/svg">
<path d="M13.0711 18.0932L21.2554 9.91228L29.443 18.0999L34.2024 13.3371L21.2554 0.386719L8.30835 13.3338L13.0711 18.0932Z" fill="white" fill-opacity="0.1"/>
<path d="M0.182129 21.457L4.94317 16.696L9.70421 21.457L4.94317 26.2181L0.182129 21.457Z" fill="white" fill-opacity="0.1"/>
<path d="M13.0712 24.8197L21.2555 33.004L29.443 24.8164L34.2058 29.5725L34.2025 29.5759L21.2555 42.5262L8.30841 29.5825L8.30176 29.5759L13.0712 24.8197Z" fill="white" fill-opacity="0.1"/>
<path d="M32.7983 21.4589L37.5594 16.6979L42.3204 21.4589L37.5594 26.22L32.7983 21.4589Z" fill="white" fill-opacity="0.1"/>
<path d="M26.0848 21.4538L21.2554 16.6211L17.6842 20.1923L17.2715 20.6017L16.4261 21.4471L16.4194 21.4538L16.4261 21.4638L21.2554 26.2898L26.0848 21.4571L26.0881 21.4538H26.0848Z" fill="white" fill-opacity="0.1"/>
<path d="M49.7485 10.5975H60.1062C62.6756 10.5975 64.6193 11.2632 65.9373 12.5945C66.4339 13.0863 66.8253 13.6738 67.088 14.3215C67.3506 14.9691 67.4788 15.6634 67.465 16.3621V16.4254C67.4739 16.9978 67.3942 17.5681 67.2287 18.1161C67.0812 18.5879 66.8672 19.0362 66.593 19.4475C66.3374 19.8352 66.0281 20.1849 65.6744 20.4859C65.3288 20.7833 64.9502 21.0402 64.5461 21.2514C65.7115 21.6573 66.7595 22.343 67.5981 23.2484C68.3392 24.0915 68.7098 25.2564 68.7098 26.7431V26.8063C68.7308 27.7347 68.5288 28.6547 68.1207 29.4889C67.7252 30.2575 67.1454 30.9162 66.4332 31.406C65.6281 31.9458 64.7315 32.3349 63.7873 32.5542C62.6654 32.8203 61.5153 32.9488 60.3624 32.937H49.7485V10.5975ZM59.0677 19.6305C59.9639 19.6738 60.8556 19.481 61.6538 19.0714C61.9651 18.8895 62.2192 18.6242 62.3875 18.3054C62.5557 17.9866 62.6313 17.627 62.6057 17.2674V17.2042C62.6222 16.8729 62.5549 16.5427 62.41 16.2443C62.2652 15.9459 62.0475 15.6888 61.777 15.4968C61.2245 15.104 60.4268 14.9077 59.3839 14.9077H54.5379V19.6305H59.0677ZM60.3758 28.6335C61.2685 28.6835 62.1572 28.4793 62.9385 28.0444C63.2429 27.8489 63.4893 27.5753 63.652 27.2521C63.8148 26.929 63.8879 26.5682 63.8638 26.2072V26.144C63.8758 25.8008 63.8035 25.46 63.6532 25.1513C63.5029 24.8426 63.2792 24.5755 63.0018 24.3733C62.4293 23.9295 61.504 23.7077 60.226 23.7077H54.5379V28.6335H60.3758Z" fill="white" fill-opacity="0.1"/>
<path d="M74.8806 10.5975H79.7965V32.9437H74.8806V10.5975Z" fill="white" fill-opacity="0.1"/>
<path d="M87.2351 10.5975H91.7682L102.246 24.35V10.5975H107.098V32.9437H102.915L92.0944 18.7385V32.9437H87.2351V10.5975Z" fill="white" fill-opacity="0.1"/>
<path d="M121.983 10.4355H126.509L136.085 32.9414H130.952L128.909 27.929H119.46L117.416 32.9414H112.404L121.983 10.4355ZM127.155 23.5889L124.179 16.3399L121.217 23.5889H127.155Z" fill="white" fill-opacity="0.1"/>
<path d="M141.4 10.5975H145.933L156.404 24.35V10.5975H161.256V32.9437H157.073L146.252 18.7385V32.9437H141.4V10.5975Z" fill="white" fill-opacity="0.1"/>
<path d="M178.949 33.3352C177.383 33.3486 175.829 33.0452 174.383 32.4432C173.021 31.881 171.786 31.0518 170.749 30.0046C169.713 28.9574 168.897 27.7134 168.349 26.3458C167.77 24.9154 167.478 23.3856 167.487 21.8427V21.7794C167.461 18.7381 168.631 15.8085 170.745 13.6218C171.785 12.5537 173.031 11.7068 174.406 11.1322C175.903 10.5124 177.509 10.2032 179.129 10.2236C180.087 10.2165 181.043 10.3023 181.985 10.4799C182.79 10.6322 183.578 10.8675 184.335 11.1821C185.021 11.4713 185.674 11.8351 186.282 12.2672C186.874 12.6885 187.431 13.1583 187.946 13.6717L184.82 17.2796C184.022 16.5428 183.126 15.919 182.158 15.4257C181.207 14.9709 180.163 14.7431 179.109 14.7601C178.232 14.7507 177.363 14.9281 176.559 15.2804C175.756 15.6328 175.037 16.152 174.45 16.8036C173.867 17.4536 173.411 18.2065 173.105 19.0236C172.784 19.8871 172.623 20.8017 172.629 21.7228V21.7861C172.626 22.7059 172.787 23.6188 173.105 24.482C173.407 25.302 173.859 26.0592 174.436 26.7153C175.019 27.375 175.736 27.9018 176.54 28.2602C177.344 28.6185 178.216 28.7999 179.096 28.7921C180.217 28.8274 181.329 28.5862 182.334 28.0898C183.292 27.5682 184.177 26.9237 184.967 26.1728L188.095 29.3346C187.543 29.9342 186.946 30.4905 186.308 30.9988C185.682 31.4939 185.002 31.917 184.281 32.2602C183.513 32.6217 182.704 32.8888 181.872 33.0556C180.91 33.2485 179.93 33.3422 178.949 33.3352Z" fill="white" fill-opacity="0.1"/>
<path d="M193.897 10.5975H210.715V14.9709H198.733V19.504H209.283V23.8774H198.749V28.5703H210.881V32.9437H193.907L193.897 10.5975Z" fill="white" fill-opacity="0.1"/>
</svg>
