<svg width="169" height="43" viewBox="0 0 169 43" fill="none" xmlns="http://www.w3.org/2000/svg">
<g filter="url(#filter0_d_23_120)">
<path fill-rule="evenodd" clip-rule="evenodd" d="M16.7067 33.7216C25.6901 35.9609 34.7871 30.4963 37.0264 21.5129H37.0259C39.2652 12.5311 33.7995 3.43245 24.8172 1.19315C15.837 -1.04614 6.74042 4.42007 4.50217 13.4034C2.26183 22.3847 7.72804 31.4823 16.7067 33.7216ZM24.4685 10.8384C26.7911 11.6384 28.4897 12.8377 28.156 15.0686C27.9144 16.7017 27.0091 17.4923 25.8072 17.77C27.4576 18.6298 28.2974 19.9475 27.4974 22.2318C26.5045 25.0684 24.1458 25.3079 21.009 24.7142L20.2472 27.7651L18.4082 27.3067L19.1595 24.2967C18.6827 24.1777 18.1955 24.0525 17.6935 23.9158L16.9401 26.9404L15.1027 26.482L15.864 23.4254C15.699 23.3831 15.5331 23.3399 15.366 23.2964C15.0979 23.2265 14.8269 23.1559 14.5525 23.0874L12.1587 22.4901L13.0719 20.3839C13.0719 20.3839 14.4273 20.7444 14.4085 20.7177C14.9298 20.8466 15.1608 20.5071 15.252 20.2807L16.455 15.4579L16.6493 15.5061C16.576 15.4773 16.5094 15.4579 16.4581 15.4448L17.3163 12.002C17.3388 11.6112 17.2042 11.1182 16.4591 10.9322C16.488 10.9128 15.1231 10.6 15.1231 10.6L15.6125 8.63523L18.1494 9.26866L18.1473 9.27809C18.5287 9.37293 18.9216 9.46304 19.3219 9.55421L20.0753 6.5332L21.9143 6.99165L21.1756 9.95345C21.6678 10.0643 22.1589 10.1799 22.6489 10.3003L23.3824 7.35788L25.2219 7.81632L24.4685 10.8384ZM18.6471 21.7942C20.147 22.1907 23.4306 23.0587 23.9525 20.9618C24.4867 18.8202 21.3077 18.1061 19.7546 17.7572C19.5804 17.7181 19.4267 17.6836 19.301 17.6521L18.2908 21.7016C18.3932 21.7271 18.513 21.7588 18.6471 21.7942ZM20.0649 15.878C21.3163 16.212 24.046 16.9404 24.5214 15.0361V15.0356C25.007 13.0873 22.3539 12.4999 21.0582 12.2131C20.9125 12.1808 20.7839 12.1524 20.6789 12.1262L19.7631 15.799C19.8496 15.8205 19.9511 15.8476 20.0649 15.878Z" fill="white" fill-opacity="0.1"/>
<path d="M53.1321 10.835C54.4917 10.835 55.6664 11.0786 56.653 11.557C57.6453 12.0401 58.4637 12.6908 59.1202 13.5092C59.7678 14.3317 60.2498 15.2932 60.561 16.395C60.8701 17.5005 61.0252 18.6877 61.0252 19.9588C61.0252 21.9131 60.6674 23.7573 59.9449 25.4968C59.2218 27.2389 58.2421 28.7504 56.9951 30.0393C55.7492 31.3266 54.278 32.3409 52.5815 33.0907C50.8876 33.841 49.046 34.2161 47.0686 34.2161C46.813 34.2161 46.3634 34.2088 45.7284 34.1957C45.0934 34.1826 44.3636 34.1171 43.5462 34.007C42.6677 33.8816 41.7963 33.7106 40.9355 33.4946C40.0346 33.2771 39.1595 32.9645 38.3247 32.562L45.6661 1.71384L52.2414 0.695312L49.6129 11.6419C50.1595 11.3948 50.7269 11.1963 51.3083 11.0488C51.9051 10.9037 52.5179 10.8319 53.1321 10.835ZM47.6167 28.9998C48.6069 28.9998 49.5395 28.7562 50.4166 28.2784C51.2982 27.7964 52.0718 27.1392 52.6899 26.3471C53.3359 25.5213 53.8442 24.5965 54.1952 23.6085C54.5633 22.5873 54.7502 21.5096 54.7474 20.4241C54.7474 19.066 54.5206 18.0087 54.0684 17.2422C53.6163 16.4799 52.7795 16.0964 51.564 16.0964C51.1658 16.0964 50.6534 16.1723 50.0173 16.308C49.3792 16.4521 48.8081 16.7513 48.2962 17.2013L45.4968 28.8264C45.6655 28.8563 45.8149 28.8845 45.9422 28.9113C46.0669 28.9401 46.2042 28.9605 46.342 28.9747C46.4871 28.9909 46.6532 28.9993 46.8538 28.9993L47.6167 28.9998ZM67.8442 33.6262H61.5638L66.8676 11.3081H73.191L67.8442 33.6262ZM70.9003 8.58891C70.0435 8.59601 69.2082 8.32053 68.5238 7.8051C67.8128 7.28536 67.4602 6.48531 67.4602 5.40705C67.4602 4.81396 67.5807 4.25754 67.8201 3.73256C68.0515 3.22401 68.376 2.76323 68.7768 2.374C69.1785 1.99054 69.6451 1.68135 70.1548 1.46078C70.6852 1.2341 71.2566 1.11889 71.8334 1.12232C72.7095 1.12232 73.4996 1.38324 74.2079 1.90612C74.9131 2.43163 75.2678 3.23168 75.2678 4.30417C75.2713 4.88307 75.1479 5.45571 74.9063 5.98181C74.6772 6.49085 74.3536 6.95185 73.9528 7.34037C73.552 7.72432 73.0852 8.0328 72.5748 8.25097C72.0498 8.48045 71.4934 8.58891 70.9003 8.58891ZM78.6949 5.74761L85.2729 4.72856L83.6576 11.3071H90.7024L89.4303 16.4825H82.4279L80.5627 24.2891C80.3909 24.9393 80.2934 25.5471 80.2662 26.1124C80.2347 26.6798 80.307 27.1671 80.4768 27.5773C80.6455 27.9886 80.9483 28.3056 81.3884 28.5293C81.827 28.7572 82.4541 28.872 83.2767 28.872C83.9541 28.872 84.6148 28.8075 85.2519 28.6797C85.9065 28.5499 86.5509 28.3731 87.18 28.1505L87.6495 32.989C86.7481 33.3154 85.8269 33.584 84.8915 33.7933C83.8997 34.0217 82.7255 34.1312 81.3685 34.1312C79.4174 34.1312 77.9048 33.8415 76.8271 33.2652C75.7509 32.6846 74.9902 31.8904 74.5349 30.8855C74.0858 29.8847 73.8852 28.7305 73.9412 27.4296C73.9989 26.126 74.1959 24.7554 74.5349 23.313L78.6949 5.74761ZM90.4263 24.7146C90.4263 22.7917 90.7375 20.9794 91.3589 19.2819C91.9798 17.5833 92.8741 16.0979 94.0341 14.8237C95.1904 13.5558 96.5993 12.5504 98.2581 11.8127C99.9074 11.0792 101.756 10.7093 103.792 10.7093C105.067 10.7093 106.206 10.8298 107.208 11.0713C108.214 11.3149 109.123 11.6298 109.947 12.0249L107.781 16.9498C107.204 16.7179 106.616 16.5126 106.02 16.3348C105.412 16.1477 104.671 16.0576 103.793 16.0576C101.697 16.0576 100.04 16.7806 98.8066 18.2204C97.5775 19.6617 96.9587 21.6019 96.9587 24.0361C96.9587 25.4784 97.2705 26.6442 97.895 27.5365C98.5164 28.4287 99.6643 28.873 101.331 28.873C102.153 28.873 102.947 28.7871 103.708 28.6194C104.474 28.4497 105.15 28.2359 105.746 27.9834L106.215 33.032C105.356 33.3616 104.477 33.6387 103.584 33.8619C102.62 34.0977 101.475 34.2192 100.145 34.2192C98.3912 34.2192 96.9053 33.963 95.6908 33.4569C94.4753 32.944 93.4709 32.2624 92.6792 31.3989C91.8839 30.5334 91.3133 29.5222 90.9602 28.3627C90.6071 27.2032 90.4263 25.984 90.4263 24.7146ZM118.326 34.2177C116.827 34.2177 115.524 33.9892 114.42 33.5371C113.319 33.0855 112.407 32.4504 111.685 31.6279C110.962 30.8095 110.422 29.8397 110.051 28.7221C109.681 27.6051 109.503 26.3681 109.503 25.0127C109.503 23.313 109.775 21.6134 110.327 19.9174C110.877 18.2199 111.692 16.6931 112.769 15.3367C113.839 13.9781 115.16 12.8674 116.713 12.0013C118.265 11.141 120.05 10.7082 122.056 10.7082C123.528 10.7082 124.823 10.9372 125.943 11.3893C127.057 11.8404 127.975 12.4802 128.701 13.2986C129.419 14.1211 129.964 15.0867 130.33 16.2064C130.7 17.3208 130.882 18.5609 130.882 19.9174C130.882 21.6118 130.613 23.3125 130.079 25.0121C129.544 26.7045 128.751 28.2343 127.703 29.5934C126.657 30.9504 125.35 32.0601 123.778 32.9225C122.21 33.7854 120.391 34.2177 118.326 34.2177ZM121.464 16.0581C120.533 16.0581 119.71 16.3279 119.005 16.8618C118.298 17.402 117.704 18.0815 117.226 18.8999C116.741 19.7225 116.383 20.6195 116.14 21.5945C115.899 22.5717 115.782 23.4964 115.782 24.3729C115.782 25.7891 116.011 26.8931 116.459 27.6863C116.914 28.4754 117.732 28.873 118.92 28.873C119.855 28.873 120.674 28.6042 121.382 28.0651C122.086 27.5291 122.681 26.8496 123.163 26.0286C123.644 25.2112 124.006 24.3111 124.248 23.334C124.486 22.36 124.607 21.4311 124.607 20.555C124.607 19.1425 124.379 18.037 123.926 17.2443C123.474 16.4547 122.652 16.0581 121.464 16.0581ZM137.727 33.6262H131.441L136.745 11.3081H143.071L137.727 33.6262ZM140.778 8.58891C139.922 8.59614 139.087 8.32062 138.404 7.8051C137.696 7.28536 137.34 6.48531 137.34 5.40705C137.34 4.81396 137.463 4.25754 137.702 3.73256C137.932 3.2234 138.256 2.76241 138.658 2.374C139.06 1.9904 139.527 1.68121 140.037 1.46078C140.566 1.23405 141.135 1.11883 141.71 1.12232C142.589 1.12232 143.381 1.38324 144.088 1.90612C144.795 2.43163 145.151 3.23168 145.151 4.30417C145.151 4.89936 145.024 5.45787 144.787 5.98181C144.55 6.50574 144.231 6.95685 143.836 7.34037C143.434 7.72342 142.967 8.03178 142.458 8.25097C141.931 8.48045 141.375 8.58891 140.778 8.58891ZM147.597 12.323C148.074 12.1836 148.607 12.016 149.185 11.8336C149.829 11.6341 150.481 11.4655 151.141 11.3286C151.858 11.1714 152.668 11.043 153.558 10.944C154.447 10.8429 155.462 10.7936 156.589 10.7936C159.901 10.7936 162.184 11.7582 163.445 13.6815C164.704 15.6049 164.922 18.2366 164.105 21.5736L161.216 33.6241H154.894L157.695 21.8266C157.865 21.0905 157.999 20.378 158.098 19.6822C158.199 18.9927 158.192 18.3844 158.076 17.8589C157.973 17.3551 157.696 16.9037 157.293 16.5841C156.879 16.2598 156.253 16.0969 155.404 16.0969C154.564 16.1002 153.725 16.1865 152.902 16.3547L148.785 33.6225H142.461L147.597 12.323Z" fill="white" fill-opacity="0.1"/>
</g>
<defs>
<filter id="filter0_d_23_120" x="0" y="0.691406" width="168.589" height="41.532" filterUnits="userSpaceOnUse" color-interpolation-filters="sRGB">
<feFlood flood-opacity="0" result="BackgroundImageFix"/>
<feColorMatrix in="SourceAlpha" type="matrix" values="0 0 0 0 0 0 0 0 0 0 0 0 0 0 0 0 0 0 127 0" result="hardAlpha"/>
<feOffset dy="4"/>
<feGaussianBlur stdDeviation="2"/>
<feComposite in2="hardAlpha" operator="out"/>
<feColorMatrix type="matrix" values="0 0 0 0 0 0 0 0 0 0 0 0 0 0 0 0 0 0 0.25 0"/>
<feBlend mode="normal" in2="BackgroundImageFix" result="effect1_dropShadow_23_120"/>
<feBlend mode="normal" in="SourceGraphic" in2="effect1_dropShadow_23_120" result="shape"/>
</filter>
</defs>
</svg>
