<svg width="20" height="20" viewBox="0 0 20 20" fill="none" xmlns="http://www.w3.org/2000/svg">
<path fill-rule="evenodd" clip-rule="evenodd" d="M0 10C0 4.48 4.48 0 10 0C15.52 0 20 4.48 20 10C20 15.52 15.52 20 10 20C4.48 20 0 15.52 0 10ZM13.3942 6.184L12.5702 6.11203C10.86 5.96266 9.14005 5.96266 7.42982 6.11203L6.60585 6.184C6.01332 6.23575 5.51267 6.6152 5.28998 7.1467C5.26492 7.20651 5.29044 7.27446 5.34605 7.30748L8.78754 9.35077C9.52993 9.79155 10.4544 9.78198 11.1876 9.32593L14.6063 7.19954C14.6637 7.16385 14.687 7.09102 14.6559 7.03086C14.4125 6.56064 13.9427 6.23191 13.3942 6.184ZM5.08359 8.33029C5.09351 8.23149 5.20209 8.17712 5.28718 8.22764L8.3712 10.0587C9.37562 10.655 10.6264 10.6421 11.6184 10.0251L14.698 8.10958C14.7827 8.0569 14.8931 8.11026 14.9039 8.20977C15.0566 9.62819 15.0273 11.0614 14.8159 12.4742C14.7076 13.1978 14.1198 13.7526 13.3942 13.816L12.5702 13.888C10.86 14.0373 9.14005 14.0373 7.42982 13.888L6.60585 13.816C5.88024 13.7526 5.29242 13.1978 5.18411 12.4742C4.97866 11.1014 4.94516 9.70934 5.08359 8.33029Z" fill="#414242"/>
</svg>
