<svg width="25" height="27" viewBox="0 0 25 27" fill="none" xmlns="http://www.w3.org/2000/svg">
<path d="M12.5 0C8.70462 0 5.62431 3.024 5.62431 6.75C5.62431 10.476 8.70462 13.5 12.5 13.5C16.2954 13.5 19.3757 10.476 19.3757 6.75C19.3757 3.024 16.2954 0 12.5 0ZM15.484 6.0885L11.7712 9.7335C11.6337 9.8685 11.3449 10.0035 11.1524 10.044L9.73597 10.233C9.21342 10.3005 8.85589 9.9495 8.93839 9.45L9.14466 8.0595C9.17217 7.8705 9.30968 7.587 9.46095 7.452L13.1738 3.807C13.8064 3.186 14.5627 2.889 15.4978 3.807C16.4191 4.7385 16.1166 5.4675 15.484 6.0885Z" fill="#CABA21"/>
<path d="M12.5 16.2C5.61056 16.2 0 20.736 0 26.325C0 26.703 0.30253 27 0.687569 27H24.3124C24.6975 27 25 26.703 25 26.325C25 20.736 19.3894 16.2 12.5 16.2Z" fill="#CABA21"/>
</svg>
