<svg width="20" height="20" viewBox="0 0 20 20" fill="none" xmlns="http://www.w3.org/2000/svg">
<path d="M17.9802 5.8175L10.2802 10.2775C9.97023 10.4575 9.58023 10.4575 9.26023 10.2775L1.56023 5.8175C1.01023 5.4975 0.870234 4.7475 1.29023 4.2775C1.58023 3.9475 1.91023 3.6775 2.26023 3.4875L7.68023 0.4875C8.84023 -0.1625 10.7202 -0.1625 11.8802 0.4875L17.3002 3.4875C17.6502 3.6775 17.9802 3.9575 18.2702 4.2775C18.6702 4.7475 18.5302 5.4975 17.9802 5.8175Z" fill="white"/>
<path d="M9.2 12.1375V18.9575C9.2 19.7175 8.43 20.2175 7.75 19.8875C5.69 18.8775 2.22 16.9875 2.22 16.9875C1 16.2975 0 14.5575 0 13.1275V7.9675C0 7.1775 0.83 6.6775 1.51 7.0675L8.7 11.2375C9 11.4275 9.2 11.7675 9.2 12.1375Z" fill="white"/>
<path d="M10.3398 12.1375V18.9575C10.3398 19.7175 11.1098 20.2175 11.7898 19.8875C13.8498 18.8775 17.3198 16.9875 17.3198 16.9875C18.5398 16.2975 19.5398 14.5575 19.5398 13.1275V7.9675C19.5398 7.1775 18.7098 6.6775 18.0298 7.0675L10.8398 11.2375C10.5398 11.4275 10.3398 11.7675 10.3398 12.1375Z" fill="white"/>
</svg>