<svg width="209" height="43" viewBox="0 0 209 43" fill="none" xmlns="http://www.w3.org/2000/svg">
<path d="M62.2969 24.1113C62.2969 24.4623 62.0023 24.7566 61.6511 24.7566H49.1301C49.4474 27.8471 51.7703 30.666 55.045 30.666C57.2886 30.666 58.9429 29.8169 60.2007 28.0283C60.382 27.7792 60.6539 27.6207 60.9939 27.7679C61.1752 27.8471 61.3111 28.0169 61.3451 28.2207C61.3791 28.4245 61.3225 28.5377 61.2658 28.6509C60.008 30.8471 57.5039 31.9226 55.045 31.9226C50.8298 31.9226 47.8384 28.1641 47.8384 24.134C47.8384 20.1039 50.8411 16.3454 55.045 16.3454C59.2489 16.3341 62.2969 20.0812 62.2969 24.1113ZM60.9599 23.4887C60.6879 20.3982 58.3197 17.5794 55.045 17.5794C51.7703 17.5794 49.4474 20.3982 49.1301 23.4887H60.9599ZM77.4807 16.6511C77.8433 16.6511 78.1039 16.9681 78.1039 17.2737C78.1039 17.636 77.832 17.8963 77.4807 17.8963H74.1267V31.0509C74.1267 31.3678 73.8547 31.6735 73.5035 31.6735C73.1409 31.6735 72.8802 31.3565 72.8802 31.0509V17.8963H69.6509C69.2883 17.8963 69.0276 17.6246 69.0276 17.2737C69.0276 16.9567 69.2996 16.6511 69.6509 16.6511H72.8802V11.8398C72.8802 11.5342 73.0842 11.2512 73.3901 11.2059C73.8094 11.138 74.138 11.421 74.138 11.8172V16.6511H77.4807ZM97.9561 23.0019V30.9716C97.9561 31.3339 97.6388 31.5942 97.3329 31.5942C96.9703 31.5942 96.7097 31.3226 96.7097 30.9716V23.0019C96.7097 20.3189 95.1913 17.636 92.1885 17.636C88.3359 17.636 86.6816 20.9869 86.9082 24.4396C86.9082 24.5302 86.9535 24.9264 86.9535 24.9717V30.949C86.9535 31.2546 86.7496 31.5377 86.4436 31.5829C86.0244 31.6509 85.6958 31.3678 85.6958 30.9716V4.79842C85.6958 4.48144 85.9677 4.17578 86.319 4.17578C86.6816 4.17578 86.9422 4.49276 86.9422 4.79842V19.6058C88.0187 17.6813 89.945 16.3794 92.1772 16.3794C95.8485 16.3794 97.9561 19.6057 97.9561 23.0019ZM120.392 24.1113C120.392 24.4623 120.097 24.7566 119.746 24.7566H107.225C107.542 27.8471 109.865 30.666 113.14 30.666C115.383 30.666 117.038 29.8169 118.296 28.0283C118.477 27.7792 118.749 27.6207 119.089 27.7679C119.27 27.8471 119.406 28.0169 119.44 28.2207C119.474 28.4245 119.417 28.5377 119.361 28.6509C118.103 30.8471 115.599 31.9226 113.14 31.9226C108.925 31.9226 105.933 28.1641 105.933 24.134C105.933 20.1039 108.936 16.3454 113.14 16.3454C117.344 16.3341 120.38 20.0812 120.392 24.1113ZM119.043 23.4887C118.771 20.3982 116.403 17.5794 113.129 17.5794C109.854 17.5794 107.531 20.3982 107.214 23.4887H119.043ZM135.757 17.2284C135.757 17.636 135.53 17.8511 135.179 17.8963C131.508 18.4284 129.853 21.4284 129.853 24.9264V30.9037C129.853 31.2094 129.649 31.4924 129.343 31.5376C128.924 31.6056 128.596 31.3226 128.596 30.9263V17.285C128.596 16.9794 128.8 16.6964 129.105 16.6511C129.525 16.5832 129.853 16.8662 129.853 17.2624V20.0359C130.884 18.2926 132.947 16.6398 135.088 16.6398C135.394 16.6511 135.757 16.8662 135.757 17.2284ZM156.312 24.1113C156.312 24.4623 156.017 24.7566 155.666 24.7566H143.145C143.462 27.8471 145.785 30.666 149.06 30.666C151.303 30.666 152.958 29.8169 154.215 28.0283C154.397 27.7792 154.669 27.6207 155.008 27.7679C155.19 27.8471 155.326 28.0169 155.36 28.2207C155.394 28.4245 155.337 28.5377 155.28 28.6509C154.023 30.8471 151.518 31.9226 149.06 31.9226C144.844 31.9226 141.853 28.1641 141.853 24.134C141.853 20.1039 144.856 16.3454 149.06 16.3454C153.263 16.3341 156.3 20.0812 156.312 24.1113ZM154.963 23.4887C154.691 20.3982 152.323 17.5794 149.048 17.5794C145.774 17.5794 143.451 20.3982 143.133 23.4887H154.963ZM176.515 17.3869V31.0509C176.515 31.4131 176.198 31.6735 175.892 31.6735C175.529 31.6735 175.269 31.4018 175.269 31.0509V28.4584C174.237 30.5188 172.402 31.9905 170.068 31.9905C166.351 31.9905 164.289 28.7641 164.289 25.3679V17.3529C164.289 17.036 164.561 16.7303 164.912 16.7303C165.275 16.7303 165.535 17.0473 165.535 17.3529V25.3679C165.535 28.0509 167.054 30.7339 170.056 30.7339C174.271 30.7339 175.257 26.7943 175.257 22.4585V17.3529C175.257 16.9907 175.62 16.6284 176.062 16.753C176.334 16.8435 176.515 17.1039 176.515 17.3869ZM208.174 22.9566V30.9716C208.174 31.3339 207.857 31.5942 207.551 31.5942C207.188 31.5942 206.928 31.3226 206.928 30.9716V22.9566C206.928 20.2737 205.41 17.636 202.407 17.636C198.645 17.636 197.206 21.6661 197.206 24.7906V30.9603C197.206 31.3226 196.888 31.5829 196.583 31.5829C196.22 31.5829 195.959 31.3112 195.959 30.9603V22.9453C195.959 20.2623 194.441 17.6246 191.438 17.6246C187.631 17.6246 186.067 20.6246 186.203 24.6094C186.203 24.7 186.249 24.8811 186.203 24.9264V30.949C186.203 31.2546 185.999 31.5377 185.693 31.5829C185.274 31.6509 184.945 31.3678 184.945 30.9716V17.285C184.945 16.9794 185.149 16.6964 185.455 16.6511C185.875 16.5832 186.203 16.8662 186.203 17.2624V19.5491C187.28 17.6246 189.206 16.3681 191.438 16.3681C193.988 16.3681 195.959 17.9756 196.764 20.3529C197.795 18.0209 199.812 16.3681 202.407 16.3681C206.067 16.3794 208.174 19.5605 208.174 22.9566Z" fill="white" fill-opacity="0.1"/>
<path d="M14.052 29.6391L27.2234 21.8548L14.052 0L0.880615 21.8548L14.052 29.6391Z" fill="white" fill-opacity="0.1"/>
<path d="M14.0522 42.9099L27.2307 24.3516L14.0522 32.1288L0.880859 24.3516L14.0522 42.9099Z" fill="white" fill-opacity="0.1"/>
</svg>
