<svg width="162" height="43" viewBox="0 0 162 43" fill="none" xmlns="http://www.w3.org/2000/svg">
<path d="M21.6707 0.384766C10.0298 0.384766 0.588867 9.82455 0.588867 21.466C0.588867 23.7934 0.96591 26.0317 1.66287 28.1254H7.96748V10.3878L21.6707 24.0911L35.3739 10.3878V28.126H41.6791C42.3929 25.9782 42.7556 23.7293 42.7531 21.466C42.7531 9.82455 33.3122 0.384766 21.6707 0.384766Z" fill="white" fill-opacity="0.1"/>
<path d="M12.5391 21.2617V32.4228H3.65576C7.3565 38.4943 14.0404 42.5492 21.6704 42.5492C29.3004 42.5492 35.9843 38.4943 39.6845 32.4228H30.8011V21.2617L21.6704 30.393L12.5391 21.2617Z" fill="white" fill-opacity="0.1"/>
<path d="M156.155 27.4677C155.04 28.616 153.689 29.1872 152.099 29.1872C150.695 29.1872 149.454 28.7462 148.367 27.8596C146.97 26.729 146.273 25.1894 146.273 23.2414C146.273 21.4973 146.828 20.0559 147.939 18.9248C149.045 17.7897 150.412 17.2258 152.043 17.2258C153.652 17.2258 155.02 17.8062 156.143 18.9654C157.27 20.1251 157.833 21.543 157.833 23.2214C157.833 24.9032 157.274 26.316 156.155 27.4677ZM158.495 16.6494C156.706 14.8499 154.567 13.9473 152.075 13.9473C150.433 13.9473 148.898 14.3597 147.478 15.1841C146.052 16.009 144.933 17.1276 144.12 18.5409C143.307 19.9537 142.899 21.5018 142.899 23.1837C142.899 25.6956 143.773 27.8636 145.522 29.6905C147.269 31.5192 149.462 32.4298 152.099 32.4298C154.619 32.4298 156.764 31.5443 158.532 29.7631C160.3 27.9864 161.182 25.8104 161.182 23.2414C161.182 20.6518 160.287 18.4552 158.495 16.6494Z" fill="white" fill-opacity="0.1"/>
<path d="M136.501 20.7323C136.077 21.0282 135.876 21.1739 134.753 21.1739H130.334V17.3932H134.616C135.475 17.3932 135.627 17.4578 135.978 17.5903C136.318 17.7114 136.611 17.9345 136.818 18.229C137.028 18.5249 137.131 18.8762 137.131 19.279C137.131 19.9565 136.921 20.441 136.501 20.7323ZM137.032 24.2131C138.204 23.7927 139.082 23.1757 139.664 22.3622C140.248 21.543 140.535 20.5307 140.535 19.3138C140.535 18.1604 140.274 17.1573 139.747 16.3129C139.219 15.4686 138.52 14.8642 137.655 14.4997C136.789 14.1352 135.335 13.9513 133.291 13.9513H126.819V32.4264H130.334V24.6033H133.401L137.56 32.4264H141.405L137.032 24.2131ZM111.062 13.9473H123.04V17.3892H114.556V21.1711H123.04V24.553H114.556V28.9673H123.04V32.4235H111.062V13.9473ZM92.502 13.9473H95.8668L103.793 26.104V13.9473H107.308V32.4224H103.93L96.017 20.3044V32.4224H92.502V13.9473Z" fill="white" fill-opacity="0.1"/>
<path d="M84.7114 27.4677C83.5968 28.616 82.2452 29.1872 80.6553 29.1872C79.2517 29.1872 78.0103 28.7462 76.9237 27.8596C75.527 26.729 74.8294 25.1894 74.8294 23.2414C74.8294 21.4973 75.3847 20.0559 76.4953 18.9248C77.6019 17.7897 78.9689 17.2258 80.5993 17.2258C82.2086 17.2258 83.5768 17.8062 84.6994 18.9654C85.8265 20.1251 86.3898 21.543 86.3898 23.2214C86.3898 24.9032 85.8311 26.316 84.7114 27.4677ZM87.0519 16.6494C85.2627 14.8499 83.1232 13.9473 80.6319 13.9473C78.9901 13.9473 77.455 14.3597 76.0343 15.1841C74.6084 16.009 73.4892 17.1276 72.6769 18.5409C71.864 19.9537 71.4561 21.5018 71.4561 23.1837C71.4561 25.6956 72.3295 27.8636 74.0782 29.6905C75.8252 31.5192 78.0189 32.4298 80.6559 32.4298C83.1752 32.4298 85.3204 31.5443 87.0885 29.7631C88.8566 27.9864 89.7386 25.8104 89.7386 23.2414C89.7386 20.6518 88.844 18.4552 87.0519 16.6494Z" fill="white" fill-opacity="0.1"/>
<path d="M51.5986 13.9473H55.0406L59.3097 26.8336L63.644 13.9473H67.0345L70.148 32.4224H66.7563L64.7717 20.7546L60.8413 32.4229H57.741L53.862 20.7546L51.8386 32.4229H48.4092L51.5986 13.9473Z" fill="white" fill-opacity="0.1"/>
</svg>