<svg width="18" height="20" viewBox="0 0 18 20" fill="none" xmlns="http://www.w3.org/2000/svg">
<path d="M15.09 2.1025L10.1 0.2325C9.27 -0.0775 7.91 -0.0775 7.08 0.2325L2.09 2.1025C0.94 2.5325 0 3.8925 0 5.1125V12.5425C0 13.7225 0.78 15.2725 1.73 15.9825L6.03 19.1925C7.44 20.2525 9.76 20.2525 11.17 19.1925L15.47 15.9825C16.42 15.2725 17.2 13.7225 17.2 12.5425V5.1125C17.18 3.8925 16.24 2.5325 15.09 2.1025ZM8.52 5.0225C9.7 5.0225 10.66 5.9825 10.66 7.1625C10.66 8.3225 9.75 9.2525 8.6 9.2925H8.58H8.56C8.54 9.2925 8.52 9.2925 8.5 9.2925C7.3 9.2525 6.4 8.3225 6.4 7.1625C6.39 5.9825 7.35 5.0225 8.52 5.0225ZM10.78 14.3525C10.17 14.7525 9.38 14.9625 8.59 14.9625C7.8 14.9625 7 14.7625 6.4 14.3525C5.83 13.9725 5.52 13.4525 5.51 12.8825C5.51 12.3225 5.83 11.7825 6.4 11.4025C7.61 10.6025 9.58 10.6025 10.79 11.4025C11.36 11.7825 11.68 12.3025 11.68 12.8725C11.67 13.4325 11.35 13.9725 10.78 14.3525Z" fill="white"/>
</svg>