<svg width="169" height="48" viewBox="0 0 169 48" fill="none" xmlns="http://www.w3.org/2000/svg">
<path d="M61.3993 18.1978C60.9291 18.042 59.9766 17.8861 59.0363 17.8861C56.1911 17.8861 53.2012 20.0799 53.2012 22.9091V36.2398H46.7271V12.5514H52.8757V14.9011C54.2983 13.1748 56.9747 12.0719 59.8199 12.0719C60.7723 12.0719 61.2425 12.2278 62.0262 12.2278L61.3993 18.1978ZM68.6569 0C70.8632 0 72.756 1.72627 72.756 4.07592C72.756 6.42557 70.8632 8.15185 68.5002 8.15185C66.1373 8.15185 64.2445 6.42557 64.2445 4.07592C64.4012 1.72627 66.294 0 68.6569 0ZM71.8156 36.2398H65.3416V12.5514H71.8156V36.2398ZM90.7435 12.0839C88.0671 12.0839 85.692 13.031 83.7993 14.4336V12.5514H77.494V48H83.956V34.5135C85.8488 35.9281 87.8983 36.7073 90.43 36.7073C93.9022 36.7073 97.3743 35.1369 99.4238 32.6314C101.317 30.4376 102.426 27.6084 102.426 24.3117C102.414 17.4186 97.2176 12.0839 90.7435 12.0839ZM89.9599 30.9051C86.0176 30.9051 83.3291 28.2438 83.3291 24.3117C83.3291 20.3916 86.0055 17.7183 89.9599 17.7183C93.432 17.7183 96.1084 20.7033 96.1084 24.3117C96.1084 28.0879 93.2632 30.9051 89.9599 30.9051ZM134.917 1.41458H141.391V36.2398H134.917V1.41458ZM167.419 32.4755C165.057 35.1369 161.271 36.7073 157.642 36.7073C150.541 36.7073 145.176 31.8402 145.176 24.3117C145.176 17.7183 149.745 11.9161 156.846 11.9161C163.477 11.9161 168.203 17.4066 168.203 24C168.203 24.6234 168.203 25.2587 168.046 25.8821H151.325C151.638 29.1788 154.327 31.5285 157.799 31.5285C160.475 31.5285 162.694 29.958 163.791 28.8671L167.419 32.4755ZM161.416 21.3387C161.259 19.3007 159.366 17.1069 156.678 17.1069C154.001 17.1069 151.783 19.1449 151.626 21.3387H161.416ZM119.461 12.0839C116.784 12.0839 114.409 13.031 112.517 14.4336V12.5514H106.368V48H112.842V34.5135C114.735 35.9281 116.784 36.7073 119.316 36.7073C122.788 36.7073 126.26 35.1369 128.31 32.6314C130.203 30.4376 131.312 27.6084 131.312 24.3117C131.131 17.4186 125.923 12.0839 119.461 12.0839ZM118.665 30.9051C114.723 30.9051 112.034 28.2438 112.034 24.3117C112.034 20.3916 114.711 17.7183 118.665 17.7183C122.137 17.7183 124.814 20.7033 124.814 24.3117C124.826 28.0879 121.981 30.9051 118.665 30.9051ZM25.1228 3.93207C22.4464 5.5025 20.8671 8.31968 20.8671 11.3047C20.8671 12.8751 21.494 14.4456 22.2897 15.8482C22.9166 17.1069 23.2421 19.3007 21.0238 20.3916C19.4445 21.3387 17.3949 20.7033 16.4546 19.1329C15.5022 17.8741 14.4051 16.6274 12.9825 15.6803C10.306 14.1099 7.14737 14.1099 4.45889 15.6803C1.78246 17.2507 0.203125 20.0679 0.203125 23.0529C0.203125 26.038 1.78246 28.8551 4.45889 30.4256C7.13531 31.996 10.294 31.996 12.9825 30.4256C14.4051 29.6463 15.5022 28.3876 16.2979 26.973C16.9248 25.8701 18.6608 24.4675 20.8671 25.7143C22.4464 26.6613 22.9166 28.6993 22.1329 30.2577C21.3493 31.6723 20.8671 33.2428 20.8671 34.8012C20.8671 37.7862 22.4464 40.6034 25.1228 42.1738C27.7993 43.7443 30.9579 43.7443 33.6464 42.1738C36.3228 40.6034 37.9022 37.7862 37.9022 34.8012C37.9022 31.8162 36.3228 28.999 33.6464 27.4286C32.2238 26.6493 30.6445 26.3257 28.9084 26.3257C27.4858 26.3257 25.593 25.3786 25.593 23.029C25.593 21.1469 27.0156 19.7323 28.9084 19.7323C30.4877 19.7323 32.2238 19.4206 33.6464 18.6294C36.3228 17.0589 37.9022 14.2418 37.9022 11.2567C37.9022 8.27173 36.3228 5.45455 33.6464 3.88412C32.3805 3.1049 30.8012 2.78122 29.3906 2.78122C27.956 2.82917 26.3766 3.14086 25.1228 3.93207Z" fill="white" fill-opacity="0.1"/>
</svg>
