<svg width="52" height="16" viewBox="0 0 52 16" fill="none" xmlns="http://www.w3.org/2000/svg">
<path d="M7.53107 1.26725C7.69215 0.831943 8.30785 0.831944 8.46893 1.26725L10.0809 5.62365C10.1316 5.76051 10.2395 5.86842 10.3763 5.91906L14.7327 7.53107C15.1681 7.69215 15.1681 8.30785 14.7327 8.46893L10.3763 10.0809C10.2395 10.1316 10.1316 10.2395 10.0809 10.3763L8.46893 14.7327C8.30785 15.1681 7.69215 15.1681 7.53107 14.7327L5.91906 10.3763C5.86842 10.2395 5.76051 10.1316 5.62365 10.0809L1.26725 8.46893C0.831943 8.30785 0.831944 7.69215 1.26725 7.53107L5.62365 5.91906C5.76051 5.86842 5.86842 5.76051 5.91906 5.62365L7.53107 1.26725Z" fill="#72B218"/>
<path d="M25.3089 1.26725C25.47 0.831943 26.0857 0.831944 26.2468 1.26725L27.8588 5.62365C27.9094 5.76051 28.0173 5.86842 28.1542 5.91906L32.5106 7.53107C32.9459 7.69215 32.9459 8.30785 32.5106 8.46893L28.1542 10.0809C28.0173 10.1316 27.9094 10.2395 27.8588 10.3763L26.2468 14.7327C26.0857 15.1681 25.47 15.1681 25.3089 14.7327L23.6969 10.3763C23.6463 10.2395 23.5383 10.1316 23.4015 10.0809L19.0451 8.46893C18.6098 8.30785 18.6098 7.69215 19.0451 7.53107L23.4015 5.91906C23.5383 5.86842 23.6463 5.76051 23.6969 5.62365L25.3089 1.26725Z" fill="#72B218"/>
<path d="M43.087 1.26725C43.2481 0.831943 43.8638 0.831944 44.0248 1.26725L45.6368 5.62365C45.6875 5.76051 45.7954 5.86842 45.9323 5.91906L50.2887 7.53107C50.724 7.69215 50.724 8.30785 50.2887 8.46893L45.9323 10.0809C45.7954 10.1316 45.6875 10.2395 45.6368 10.3763L44.0248 14.7327C43.8638 15.1681 43.2481 15.1681 43.087 14.7327L41.475 10.3763C41.4243 10.2395 41.3164 10.1316 41.1796 10.0809L36.8232 8.46893C36.3879 8.30785 36.3879 7.69215 36.8232 7.53107L41.1796 5.91906C41.3164 5.86842 41.4243 5.76051 41.475 5.62365L43.087 1.26725Z" fill="#72B218"/>
</svg>