<svg width="30" height="30" viewBox="0 0 30 30" fill="none" xmlns="http://www.w3.org/2000/svg">
<path d="M18.75 19.375C18.75 23.8625 15.1125 27.5 10.625 27.5C6.1375 27.5 2.5 23.8625 2.5 19.375C2.5 14.8875 6.1375 11.25 10.625 11.25C10.8375 11.25 11.0625 11.2625 11.275 11.275C15.2375 11.5875 18.4125 14.7625 18.725 18.725C18.7375 18.9375 18.75 19.1625 18.75 19.375Z" fill="#CBBB22"/>
<path d="M27.5001 10.625C27.5001 14.7 24.5001 18.0625 20.6001 18.65V18.575C20.2126 13.725 16.2751 9.7875 11.3876 9.4H11.3501C11.9376 5.5 15.3001 2.5 19.3751 2.5C23.8626 2.5 27.5001 6.1375 27.5001 10.625Z" fill="#CBBA22"/>
<path d="M6.9875 2.5H3.75C3.0625 2.5 2.5 3.0625 2.5 3.75V6.9875C2.5 8.1 3.85 8.6625 4.6375 7.875L7.875 4.6375C8.65 3.85 8.1 2.5 6.9875 2.5Z" fill="#CBBB22"/>
<path d="M23.0124 27.5H26.2499C26.9374 27.5 27.4999 26.9375 27.4999 26.25V23.0125C27.4999 21.9 26.1499 21.3375 25.3624 22.125L22.1249 25.3625C21.3499 26.15 21.8999 27.5 23.0124 27.5Z" fill="#CBBB22"/>
</svg>