<svg width="152" height="43" viewBox="0 0 152 43" fill="none" xmlns="http://www.w3.org/2000/svg">
<path d="M54.8455 16.575H57.4627V33.6903H54.8455V16.575ZM47.8379 9.33203H69.2056V11.9492H47.8379V9.33203ZM59.5849 16.575H62.2021V33.6903H59.5849V16.575ZM134.628 33.7146H137.273V23.404L134.628 20.4622V33.7146Z" fill="white" fill-opacity="0.1"/>
<path d="M148.553 9.33253V28.4401L129.839 7.64453V33.7151H132.485V14.5913L151.203 35.395V9.33253H148.553ZM112.716 9.31629C105.992 9.31629 100.523 14.786 100.523 21.5096C100.523 28.2332 105.992 33.7029 112.716 33.7029C119.44 33.7029 124.909 28.2332 124.909 21.5096C124.909 14.786 119.44 9.31629 112.716 9.31629ZM112.716 31.0736C107.441 31.0736 103.148 26.7846 103.148 21.5056C103.148 16.2265 107.437 11.9376 112.716 11.9376C117.995 11.9376 122.284 16.2265 122.284 21.5056C122.284 26.7846 117.991 31.0736 112.716 31.0736Z" fill="white" fill-opacity="0.1"/>
<path d="M112.716 19.7521C111.75 19.7521 110.959 20.5434 110.959 21.5091C110.959 22.4748 111.75 23.2661 112.716 23.2661C113.682 23.2661 114.473 22.4748 114.473 21.5091C114.473 20.5434 113.69 19.7521 112.716 19.7521ZM95.9335 16.8063C95.9335 12.6837 92.6021 9.33203 88.5079 9.33203H74.5576V33.7146H77.1626V11.9776H88.5079C91.1332 11.9776 93.2716 14.1444 93.2716 16.8022C93.2716 19.4478 91.1616 21.6065 88.5607 21.6349L79.3051 21.6308V33.7105H81.9101V24.2764H88.0129L92.9957 33.7105H96.0187L90.8167 23.9072C93.8397 22.9131 95.9335 20.0159 95.9335 16.8063Z" fill="white" fill-opacity="0.1"/>
<path d="M31.6427 6.43641L0.174316 0.642578L16.7327 42.3325L39.8086 14.207L31.6427 6.43641ZM31.1351 8.99203L35.9495 13.5681L22.7808 15.9545L31.1351 8.99203ZM19.9232 15.4739L6.04496 3.95997L28.7278 8.13469L19.9232 15.4739ZM18.9353 17.5135L16.6727 36.2274L4.47017 5.51082L18.9353 17.5135ZM21.0286 18.5046L35.6083 15.8644L18.8861 36.2492L21.0286 18.5046Z" fill="white" fill-opacity="0.1"/>
</svg>
